<svg xmlns="http://www.w3.org/2000/svg" width="48" height="48" viewBox="0 0 48 48">
  <defs>
    <linearGradient id="instagramGradient" x1="0%" y1="100%" x2="100%" y2="0%">
      <stop offset="0%" style="stop-color:#833AB4;stop-opacity:1" />
      <stop offset="50%" style="stop-color:#E1306C;stop-opacity:1" />
      <stop offset="100%" style="stop-color:#F77737;stop-opacity:1" />
    </linearGradient>
  </defs>
  <rect width="48" height="48" rx="12" fill="url(#instagramGradient)"/>
  <path d="M24 16.5c-4.14 0-7.5 3.36-7.5 7.5s3.36 7.5 7.5 7.5 7.5-3.36 7.5-7.5-3.36-7.5-7.5-7.5zm0 12.39c-2.71 0-4.89-2.18-4.89-4.89s2.18-4.89 4.89-4.89 4.89 2.18 4.89 4.89-2.18 4.89-4.89 4.89zM32.49 16.17c0 .97-.78 1.75-1.75 1.75s-1.75-.78-1.75-1.75.78-1.75 1.75-1.75 1.75.78 1.75 1.75zM36.87 18c-.09-2.01-.54-3.79-1.97-5.22-1.43-1.43-3.21-1.88-5.22-1.97-2.06-.12-8.23-.12-10.29 0-2.01.09-3.79.54-5.22 1.97-1.43 1.43-1.88 3.21-1.97 5.22-.12 2.06-.12 8.23 0 10.29.09 2.01.54 3.79 1.97 5.22 1.43 1.43 3.21 1.88 5.22 1.97 2.06.12 8.23.12 10.29 0 2.01-.09 3.79-.54 5.22-1.97 1.43-1.43 1.88-3.21 1.97-5.22.12-2.06.12-8.23 0-10.29zm-3.12 12.52c-.43 1.08-1.27 1.92-2.35 2.35-1.63.65-5.49.50-7.29.50s-5.66.15-7.29-.50c-1.08-.43-1.92-1.27-2.35-2.35-.65-1.63-.50-5.49-.50-7.29s-.15-5.66.50-7.29c.43-1.08 1.27-1.92 2.35-2.35 1.63-.65 5.49-.50 7.29-.50s5.66-.15 7.29.50c1.08.43 1.92 1.27 2.35 2.35.65 1.63.50 5.49.50 7.29s.15 5.66-.50 7.29z" fill="white"/>
</svg>

